<svg xmlns="http://www.w3.org/2000/svg" width="256" height="256" viewBox="0 0 100 100"><rect width="100" height="100" rx="20" fill="#032183"></rect><path fill="#fff" d="M46.25 86.56L21.73 86.56L21.73 80.66L29.38 79.34L29.38 20.70L21.73 19.39L21.73 13.44L38.61 13.44L38.61 42.59Q41.23 38.94 45.03 36.92Q48.83 34.91 53.47 34.91L53.47 34.91Q61.63 34.91 66.13 39.78Q70.63 44.66 70.63 54.78L70.63 54.78L70.63 79.34L78.27 80.66L78.27 86.56L53.75 86.56L53.75 80.66L61.39 79.34L61.39 54.69Q61.39 48.41 58.70 45.41Q56 42.41 50.66 42.41L50.66 42.41Q46.86 42.41 43.74 44.21Q40.63 46.02 38.61 49.11L38.61 49.11L38.61 79.34L46.25 80.66L46.25 86.56Z"></path></svg>